<?xml version="1.0" encoding="utf-8"?>
<!-- Generator: Adobe Illustrator 27.4.1, SVG Export Plug-In . SVG Version: 6.00 Build 0)  -->
<svg version="1.1" id="Layer_1" xmlns="http://www.w3.org/2000/svg" xmlns:xlink="http://www.w3.org/1999/xlink" x="0px" y="0px"
	 viewBox="0 0 16 16" style="enable-background:new 0 0 16 16;" xml:space="preserve">
<style type="text/css">
	.st0{fill:#437361;}
	.st1{fill:#FFF5E9;}
	.st2{fill:#FFF5EA;}
</style>
<circle class="st0" cx="8" cy="8" r="8"/>
<g>
	<path class="st1" d="M10.55,9.34c0.59-0.08,1.17-0.26,1.71-0.51c0.57-0.26,1.06-0.72,1.26-1.33c0.19-0.58,0.02-1.27-0.45-1.67
		c-0.55-0.46-1.27-0.38-1.81,0.06c-0.56,0.46-0.74,1.2-0.92,1.86c-0.2,0.73-0.37,1.47-0.61,2.19c-0.13,0.41-0.37,0.96-0.88,0.92
		c-0.57-0.05-0.88-0.6-0.97-1.11c-0.06-0.37-0.03-0.75,0-1.12c0.04-0.42,0.1-0.83,0.17-1.25C8.2,6.53,8.4,5.69,8.66,4.87
		c0.11-0.36-0.37-0.64-0.63-0.37C7.31,5.26,6.7,6.13,6.24,7.07c-0.24,0.49-0.43,1-0.59,1.53C5.51,9.06,5.36,9.57,5.03,9.94
		c-0.27,0.31-0.68,0.57-1.1,0.44c-0.35-0.11-0.6-0.45-0.7-0.78c-0.12-0.38-0.1-0.8,0.06-1.16c0.14-0.32,0.42-0.6,0.68-0.67
		c0.16-0.04,0.29-0.05,0.48-0.04c0.21,0.01,0.38,0.04,0.59,0.09c0.2,0.05,0.36,0.11,0.54,0.21c0.04,0.02,0.07,0.04,0.11,0.06
		C5.7,8.1,5.81,8.18,5.77,8.15C5.8,8.17,5.82,8.19,5.85,8.22C5.87,8.24,5.88,8.25,5.9,8.27c-0.02-0.03-0.02-0.03,0,0
		c0.12,0.17,0.33,0.24,0.52,0.14c0.16-0.1,0.25-0.35,0.14-0.52c-0.49-0.7-1.57-0.98-2.38-0.91C3.69,7.02,3.29,7.19,2.97,7.56
		C2.61,7.98,2.41,8.52,2.4,9.07c-0.02,1.1,0.82,2.27,2.02,2.07c1.34-0.22,1.72-1.67,2.09-2.75c0.43-1.25,1.14-2.4,2.05-3.35
		C8.35,4.92,8.14,4.79,7.93,4.67C7.49,6.07,7.17,7.56,7.1,9.02c-0.03,0.68,0.07,1.4,0.52,1.94c0.38,0.46,1.02,0.75,1.61,0.6
		c0.6-0.14,0.95-0.69,1.16-1.23c0.25-0.65,0.39-1.35,0.58-2.03c0.16-0.6,0.26-1.37,0.73-1.82c0.17-0.16,0.42-0.28,0.65-0.22
		c0.19,0.05,0.34,0.22,0.42,0.39c0.25,0.56-0.21,1.13-0.68,1.4c-0.52,0.29-1.16,0.47-1.75,0.55c-0.2,0.03-0.31,0.29-0.26,0.46
		C10.15,9.29,10.35,9.37,10.55,9.34L10.55,9.34z"/>
</g>
<g>
	<path class="st2" d="M8,15.19c-3.96,0-7.19-3.22-7.19-7.19c0-3.96,3.22-7.19,7.19-7.19S15.19,4.04,15.19,8
		C15.19,11.96,11.96,15.19,8,15.19z M8,0.97C4.12,0.97,0.97,4.12,0.97,8c0,3.88,3.16,7.03,7.03,7.03s7.03-3.16,7.03-7.03
		C15.03,4.12,11.88,0.97,8,0.97z"/>
</g>
</svg>
